<svg width="120" height="340" viewBox="0 0 120 340" fill="none" xmlns="http://www.w3.org/2000/svg">
  <!-- Shadow -->
  <filter id="body-shadow" x="-20%" y="-10%" width="140%" height="130%">
    <feDropShadow dx="0" dy="4" stdDeviation="4" flood-color="#000000" flood-opacity="0.1"/>
  </filter>

  <!-- Tip -->
  <path d="M 54,20 C 54,5 66,5 66,20 L 70,55 L 50,55 Z" fill="#1E293B"/>
  
  <!-- Collar -->
  <rect x="44" y="55" width="32" height="15" rx="3" fill="#94A3B8"/>

  <!-- Main White Barrel -->
  <rect x="20" y="70" width="80" height="240" rx="16" fill="#FFFFFF" stroke="#E2E8F0" stroke-width="2" filter="url(#body-shadow)"/>

  <!-- Mic Icon -->
  <g transform="translate(60, 190)" stroke="#64748B" stroke-width="3" stroke-linecap="round" stroke-linejoin="round" fill="none">
    <rect x="-7" y="-14" width="14" height="20" rx="7"/>
    <path d="M -13,-2 C -13,9 13,9 13,-2"/>
    <line x1="0" y1="9" x2="0" y2="16"/>
    <line x1="-7" y1="16" x2="7" y2="16"/>
  </g>

  <!-- Bottom Blue Plug -->
  <path d="M 22,295 L 98,295 L 98,305 C 98,315 90,325 80,325 L 40,325 C 30,325 22,315 22,305 Z" fill="#165DFC"/>
</svg>
